<?xml version="1.0" standalone="no"?>
<!DOCTYPE svg PUBLIC "-//W3C//DTD SVG 20010904//EN"
 "http://www.w3.org/TR/2001/REC-SVG-20010904/DTD/svg10.dtd">
<svg version="1.0" xmlns="http://www.w3.org/2000/svg"
 width="972.000000pt" height="952.000000pt" viewBox="0 0 972.000000 952.000000"
 preserveAspectRatio="xMidYMid meet">
<metadata>
Created by potrace 1.16, written by Peter Selinger 2001-2019
</metadata>
<g transform="translate(0.000000,952.000000) scale(0.100000,-0.100000)"
fill="#000000" stroke="none">
<path d="M0 4760 l0 -4760 4860 0 4860 0 0 4760 0 4760 -4860 0 -4860 0 0
-4760z m2369 798 c38 -186 39 -198 19 -198 -11 0 -18 7 -18 20 0 14 -7 20 -21
20 -12 0 -23 -8 -26 -20 -3 -11 -12 -20 -20 -20 -12 0 -14 7 -10 28 3 15 13
71 23 125 20 111 37 126 53 45z m139 40 c14 -14 16 -144 3 -153 -6 -3 -6 -18
0 -38 12 -42 12 -47 -5 -47 -7 0 -20 17 -29 38 l-15 37 -1 -37 c-1 -31 -5 -38
-21 -38 -19 0 -20 7 -20 118 0 65 3 122 7 125 11 12 68 8 81 -5z m436 6 c20
-8 23 -98 4 -92 -7 3 -14 19 -16 36 -2 20 -9 32 -18 32 -11 0 -14 -20 -14
-101 0 -76 3 -100 13 -97 6 3 13 19 15 36 2 20 9 32 18 32 12 0 14 -10 12 -42
-3 -42 -4 -43 -42 -46 -24 -2 -42 2 -47 10 -12 19 -11 196 1 219 11 19 43 25
74 13z m185 -107 c25 -136 25 -137 6 -137 -8 0 -15 9 -15 20 0 15 -7 20 -25
20 -18 0 -25 -5 -25 -20 0 -11 -7 -20 -15 -20 -19 0 -19 5 5 135 11 60 20 110
20 112 0 2 6 3 14 3 10 0 20 -34 35 -113z m287 76 c18 -104 22 -110 23 -35 1
57 4 72 16 72 13 0 15 -21 15 -125 0 -104 -3 -125 -15 -125 -8 0 -17 10 -19
23 -3 12 -10 42 -15 67 l-9 45 -1 -67 c-1 -53 -4 -68 -16 -68 -13 0 -15 21
-15 125 0 103 3 125 15 125 9 0 17 -14 21 -37z m622 25 c17 -17 16 -78 -2 -78
-9 0 -16 12 -18 27 -2 17 -10 29 -21 31 -16 3 -17 -5 -15 -95 2 -79 6 -98 18
-98 18 0 27 62 11 78 -18 18 -13 27 14 27 25 0 26 -1 23 -62 l-3 -63 -45 0
-45 0 -3 109 c-2 71 1 113 9 122 14 17 61 18 77 2z m176 -3 c3 -8 9 -38 13
-67 l8 -53 5 65 c4 49 9 65 20 65 12 0 15 -22 18 -122 2 -115 1 -123 -16 -123
-16 0 -22 13 -35 73 l-15 72 -1 -72 c-1 -58 -4 -73 -16 -73 -13 0 -15 21 -15
125 0 100 3 125 14 125 8 0 16 -7 20 -15z m170 9 c20 -8 23 -98 4 -92 -7 3
-14 19 -16 36 -2 20 -9 32 -18 32 -11 0 -14 -20 -14 -101 0 -76 3 -100 13 -97
6 3 13 19 15 36 2 20 9 32 18 32 12 0 14 -10 12 -42 -3 -42 -4 -43 -42 -46
-24 -2 -42 2 -47 10 -12 19 -11 196 1 219 11 19 43 25 74 13z m-1740 -380 c3
-9 6 -171 6 -360 0 -192 4 -343 9 -340 4 3 138 165 296 361 l288 355 175 -2
c114 -2 177 -7 179 -14 2 -6 -136 -183 -307 -394 -170 -211 -310 -390 -310
-397 0 -7 53 -75 118 -150 354 -414 502 -593 502 -607 0 -14 -24 -16 -187 -15
l-188 0 -225 280 c-123 154 -230 278 -236 277 -6 -2 -100 -103 -209 -225 -109
-123 -202 -223 -206 -223 -10 0 -12 1453 -2 1463 3 4 70 7 149 7 120 0 143 -2
148 -16z m1771 -13 c207 -69 315 -224 315 -453 0 -166 -73 -297 -211 -379 -38
-23 -69 -46 -69 -51 0 -6 57 -133 127 -282 178 -383 175 -376 160 -382 -7 -2
-80 -3 -162 -2 l-149 3 -145 313 -144 312 -83 0 -84 0 -2 -312 -3 -313 -147
-3 -148 -3 0 461 0 460 263 0 c144 0 288 4 319 10 125 20 173 70 172 176 -1
75 -25 120 -86 154 -43 25 -44 25 -355 28 l-313 3 0 138 c0 76 3 141 7 145 4
4 156 6 338 4 313 -4 334 -5 400 -27z m1135 -116 l0 -145 -225 0 -225 0 0
-175 0 -175 308 0 c169 0 313 -4 320 -8 9 -7 12 -42 10 -143 l-3 -134 -315 -5
-315 -5 0 -175 0 -175 223 -3 222 -2 0 -145 0 -145 -372 2 -373 3 -3 775 c-1
426 0 781 3 788 3 9 88 12 375 12 l370 0 0 -145z m1220 115 c395 -114 614
-543 504 -988 -38 -154 -147 -326 -262 -412 -67 -51 -195 -112 -272 -131 -34
-9 -110 -14 -200 -14 -123 1 -156 4 -220 24 -237 73 -399 229 -483 466 -38
106 -51 207 -44 347 7 147 23 212 85 338 39 80 60 109 137 186 114 114 199
160 370 200 88 20 288 12 385 -16z"/>
<path d="M6438 4949 c-67 -16 -158 -69 -209 -122 -93 -97 -139 -222 -139 -377
0 -218 92 -385 255 -466 63 -31 86 -37 162 -41 155 -9 251 24 349 122 102 101
145 211 145 376 1 313 -187 522 -464 518 -34 -1 -79 -5 -99 -10z m184 -375
c41 -21 68 -73 68 -134 0 -49 -3 -56 -44 -96 -39 -39 -48 -44 -90 -44 -106 0
-172 78 -152 182 18 94 125 139 218 92z"/>
</g>
</svg>
